<?xml version="1.0" encoding="UTF-8"?>
<svg id="Layer_1" data-name="Layer 1" xmlns="http://www.w3.org/2000/svg" viewBox="0 0 150 150">
  <defs>
    <style>
      .cls-1 {
        fill: #080b0b;
      }

      .cls-2 {
        fill: #ef6f37;
      }
    </style>
  </defs>
  <circle class="cls-2" cx="75" cy="75" r="75"/>
  <g>
    <path class="cls-1" d="M10.55,77.15l4.51-1.37c.51,3.75,1.72,5.58,4.21,5.58,1.93,0,2.99-1.22,2.99-3.09,0-1.67-.71-2.94-2.38-4.36l-5.02-4.31c-2.03-1.72-3.6-3.7-3.6-7.15,0-4.61,2.99-7.2,7.56-7.2s7.1,3.45,7.46,7.71l-3.65,1.37c-.41-3.04-1.27-5.07-3.6-5.07-1.78,0-2.89,1.37-2.89,2.99,0,1.01.41,1.98,1.47,2.94l5.17,4.77c2.08,1.93,4.16,4.16,4.16,7.91,0,5.02-3.3,7.51-8.11,7.51s-7.86-3.3-8.27-8.22Z"/>
    <path class="cls-1" d="M29.87,78.57c0-7.3,5.27-9.43,11.56-11.92v-2.08c0-3.55-.41-5.27-2.94-5.27-2.23,0-3.09,1.62-3.09,4.16v1.47l-5.37-.2c.1-6.49,2.84-9.48,8.82-9.48s8.01,3.25,8.01,9.28v13.39c0,2.74.25,5.17.51,7.05h-4.97c-.2-1.07-.56-2.94-.71-4.31-.71,2.28-2.59,4.72-5.93,4.72s-5.88-3.35-5.88-6.8ZM41.43,78.27v-8.32c-3.35,1.93-6.14,3.55-6.14,6.95,0,2.38.91,3.8,2.59,3.8,1.57,0,3.09-1.67,3.55-2.43Z"/>
    <path class="cls-1" d="M51.57,55.65h5.43v2.89c1.93-1.83,4.31-3.3,7.15-3.3,3.5,0,4.41,3.14,4.41,5.98v23.73h-5.43v-22.16c0-2.08-.46-3.3-2.33-3.3-1.22,0-2.59.81-3.8,1.83v23.63h-5.43v-29.31Z"/>
    <path class="cls-1" d="M72.76,73.45v-5.68c0-6.69,1.22-12.53,7.2-12.53,1.98,0,3.6,1.01,4.87,2.28v-13.64h5.43v41.08h-5.43v-1.88c-1.27,1.37-2.79,2.28-4.72,2.28-4.97,0-7.35-3.25-7.35-11.92ZM84.83,79.99v-19.22c-.96-.66-2.13-1.27-3.45-1.27-2.54,0-3.2,2.79-3.2,6.14v8.27c0,4.11.41,7.2,3.3,7.2,1.01,0,2.18-.36,3.35-1.12Z"/>
    <path class="cls-1" d="M95.73,43.89h5.43v41.08h-5.43v-41.08Z"/>
    <path class="cls-1" d="M105.81,74.57v-8.52c0-6.59,2.03-10.8,8.57-10.8s8.52,4.21,8.52,10.8v8.52c0,6.59-2.03,10.8-8.52,10.8s-8.57-4.21-8.57-10.8ZM117.48,74.92v-9.18c0-3.3,0-6.49-3.09-6.49s-3.14,3.2-3.14,6.49v9.18c0,3.3,0,6.44,3.14,6.44s3.09-3.14,3.09-6.44Z"/>
    <path class="cls-1" d="M128.83,78.37v-19.12h-3.09v-3.6h3.09v-8.57h5.43v8.57h4.72v3.6h-4.72v18.76c0,2.28.56,3.19,2.69,3.19.51,0,1.32-.05,1.98-.15v4.01c-1.37.2-2.38.31-3.75.31-4.61,0-6.34-2.74-6.34-7Z"/>
    <path class="cls-1" d="M43.04,108.26l2.58-.78c.29,2.15.99,3.19,2.41,3.19,1.1,0,1.71-.7,1.71-1.77,0-.96-.41-1.68-1.36-2.49l-2.87-2.47c-1.16-.99-2.06-2.12-2.06-4.09,0-2.64,1.71-4.12,4.32-4.12s4.06,1.97,4.26,4.41l-2.09.78c-.23-1.74-.73-2.9-2.06-2.9-1.02,0-1.65.78-1.65,1.71,0,.58.23,1.13.84,1.68l2.96,2.73c1.19,1.1,2.38,2.38,2.38,4.53,0,2.87-1.89,4.29-4.64,4.29s-4.5-1.89-4.73-4.7Z"/>
    <path class="cls-1" d="M55.28,108.96v-10.94h-1.77v-2.06h1.77v-4.9h3.1v4.9h2.7v2.06h-2.7v10.73c0,1.3.32,1.83,1.54,1.83.29,0,.75-.03,1.13-.09v2.29c-.78.12-1.36.17-2.15.17-2.64,0-3.63-1.57-3.63-4Z"/>
    <path class="cls-1" d="M62.97,109.54v-13.58h3.1v12.65c0,1.19.26,1.92,1.33,1.92.7,0,1.48-.46,2.17-1.04v-13.52h3.1v16.77h-3.1v-1.65c-1.1,1.04-2.46,1.89-4.09,1.89-2,0-2.52-1.8-2.52-3.42Z"/>
    <path class="cls-1" d="M75.23,106.14v-3.25c0-3.83.7-7.16,4.12-7.16,1.13,0,2.06.58,2.79,1.31v-7.8h3.1v23.5h-3.1v-1.07c-.73.78-1.6,1.31-2.7,1.31-2.84,0-4.21-1.86-4.21-6.82ZM82.14,109.88v-10.99c-.55-.38-1.22-.73-1.97-.73-1.45,0-1.83,1.6-1.83,3.51v4.73c0,2.35.23,4.12,1.89,4.12.58,0,1.25-.2,1.92-.64Z"/>
    <path class="cls-1" d="M88.28,90.22h3.1v3.25h-3.1v-3.25ZM88.28,95.96h3.1v16.77h-3.1v-16.77Z"/>
    <path class="cls-1" d="M94.14,106.78v-4.87c0-3.77,1.16-6.18,4.9-6.18s4.87,2.41,4.87,6.18v4.87c0,3.77-1.16,6.18-4.87,6.18s-4.9-2.41-4.9-6.18ZM100.81,106.98v-5.25c0-1.89,0-3.71-1.77-3.71s-1.8,1.83-1.8,3.71v5.25c0,1.88,0,3.68,1.8,3.68s1.77-1.8,1.77-3.68Z"/>
  </g>
</svg>